# xmcd
#
# Track frame offsets:
#	150
#	18072
#	31587
#	43212
#	61887
#	73632
#	87115
#	102747
#	113877
#	129222
#	142315
#	160370
#	173165
#	188205
#	206077
#	222587
#
# Disc length: 3186 seconds
#
# Revision: 1
# Processed by: cddbd v1.4PL0 Copyright (c) Steve Scherf et al.
# Submitted via: audiograbber 1.81.02
#
DISCID=e90c7010
DTITLE=Red Steagall - Cowboy Code (Disk 2)
DYEAR=1996
DGENRE=western
TTITLE0=Tennessee Stud
TTITLE1=The Night The Copenhagen Saved The Day
TTITLE2=Tyin' Knots In The Devil's Tail
TTITLE3=Mccorckle and The Wire
TTITLE4=Rosalee's Smile
TTITLE5=Ridin' Down The Canyon
TTITLE6=The Weather
TTITLE7=Willy The Wanderin' Gypsy and Me
TTITLE8=Redheaded Stranger
TTITLE9=Along The Navajo Trail
TTITLE10=Grandmother's Trunk
TTITLE11=Running Out Of Sunsets
TTITLE12=Nothin But A Cowboy
TTITLE13=I'd Like To Be In Texas For The Spring
TTITLE14=To An Old Friend
TTITLE15=Horses And Wars
EXTD=
EXTT0=
EXTT1=
EXTT2=
EXTT3=
EXTT4=
EXTT5=
EXTT6=
EXTT7=
EXTT8=
EXTT9=
EXTT10=
EXTT11=
EXTT12=
EXTT13=
EXTT14=
EXTT15=
PLAYORDER=
